# split-by-signature : leaves
# source : cucumber_day_09_raw.obj
# vertices: 1080
v -1.49849 0.12845 1.00112 0.22745098 0.38039216 0.22745098
v -1.51089 0.13244 0.9971 0.22745098 0.38039216 0.22745098
v -1.49876 0.13641 0.99105 0.22745098 0.38039216 0.22745098
v -1.49849 0.12845 1.00112 0.22745098 0.38039216 0.22745098
v -1.49876 0.13641 0.99105 0.22745098 0.38039216 0.22745098
v -1.51089 0.13244 0.9971 0.22745098 0.38039216 0.22745098
v -1.49849 0.12845 1.00112 0.22745098 0.38039216 0.22745098
v -1.51089 0.13244 0.9971 0.22745098 0.38039216 0.22745098
v -1.50002 0.11378 0.9991 0.22745098 0.38039216 0.22745098
v -1.49849 0.12845 1.00112 0.22745098 0.38039216 0.22745098
v -1.50002 0.11378 0.9991 0.22745098 0.38039216 0.22745098
v -1.51089 0.13244 0.9971 0.22745098 0.38039216 0.22745098
v -1.50002 0.11378 0.9991 0.22745098 0.38039216 0.22745098
v -1.51687 0.12408 0.99779 0.22745098 0.38039216 0.22745098
v -1.51089 0.13244 0.9971 0.22745098 0.38039216 0.22745098
v -1.50002 0.11378 0.9991 0.22745098 0.38039216 0.22745098
v -1.51089 0.13244 0.9971 0.22745098 0.38039216 0.22745098
v -1.51687 0.12408 0.99779 0.22745098 0.38039216 0.22745098
v -1.50002 0.11378 0.9991 0.22745098 0.38039216 0.22745098
v -1.51406 0.11231 0.99277 0.22745098 0.38039216 0.22745098
v -1.51687 0.12408 0.99779 0.22745098 0.38039216 0.22745098
v -1.50002 0.11378 0.9991 0.22745098 0.38039216 0.22745098
v -1.51687 0.12408 0.99779 0.22745098 0.38039216 0.22745098
v -1.51406 0.11231 0.99277 0.22745098 0.38039216 0.22745098
v -1.50002 0.11378 0.9991 0.22745098 0.38039216 0.22745098
v -1.50449 0.10852 0.99085 0.22745098 0.38039216 0.22745098
v -1.51406 0.11231 0.99277 0.22745098 0.38039216 0.22745098
v -1.50002 0.11378 0.9991 0.22745098 0.38039216 0.22745098
v -1.51406 0.11231 0.99277 0.22745098 0.38039216 0.22745098
v -1.50449 0.10852 0.99085 0.22745098 0.38039216 0.22745098
v -1.50002 0.11378 0.9991 0.22745098 0.38039216 0.22745098
v -1.49976 0.10734 0.99304 0.22745098 0.38039216 0.22745098
v -1.50449 0.10852 0.99085 0.22745098 0.38039216 0.22745098
v -1.50002 0.11378 0.9991 0.22745098 0.38039216 0.22745098
v -1.50449 0.10852 0.99085 0.22745098 0.38039216 0.22745098
v -1.49976 0.10734 0.99304 0.22745098 0.38039216 0.22745098
v -1.50002 0.11378 0.9991 0.22745098 0.38039216 0.22745098
v -1.48985 0.11012 0.99 0.22745098 0.38039216 0.22745098
v -1.4958 0.10746 0.99266 0.22745098 0.38039216 0.22745098
v -1.50002 0.11378 0.9991 0.22745098 0.38039216 0.22745098
v -1.4958 0.10746 0.99266 0.22745098 0.38039216 0.22745098
v -1.48985 0.11012 0.99 0.22745098 0.38039216 0.22745098
v -1.50002 0.11378 0.9991 0.22745098 0.38039216 0.22745098
v -1.48488 0.11561 0.99133 0.22745098 0.38039216 0.22745098
v -1.48985 0.11012 0.99 0.22745098 0.38039216 0.22745098
v -1.50002 0.11378 0.9991 0.22745098 0.38039216 0.22745098
v -1.48985 0.11012 0.99 0.22745098 0.38039216 0.22745098
v -1.48488 0.11561 0.99133 0.22745098 0.38039216 0.22745098
v -1.50002 0.11378 0.9991 0.22745098 0.38039216 0.22745098
v -1.48156 0.12683 0.99831 0.22745098 0.38039216 0.22745098
v -1.48488 0.11561 0.99133 0.22745098 0.38039216 0.22745098
v -1.50002 0.11378 0.9991 0.22745098 0.38039216 0.22745098
v -1.48488 0.11561 0.99133 0.22745098 0.38039216 0.22745098
v -1.48156 0.12683 0.99831 0.22745098 0.38039216 0.22745098
v -1.50002 0.11378 0.9991 0.22745098 0.38039216 0.22745098
v -1.49216 0.13747 0.99899 0.22745098 0.38039216 0.22745098
v -1.48156 0.12683 0.99831 0.22745098 0.38039216 0.22745098
v -1.50002 0.11378 0.9991 0.22745098 0.38039216 0.22745098
v -1.48156 0.12683 0.99831 0.22745098 0.38039216 0.22745098
v -1.49216 0.13747 0.99899 0.22745098 0.38039216 0.22745098
v -1.50002 0.11378 0.9991 0.22745098 0.38039216 0.22745098
v -1.49849 0.12845 1.00112 0.22745098 0.38039216 0.22745098
v -1.49216 0.13747 0.99899 0.22745098 0.38039216 0.22745098
v -1.50002 0.11378 0.9991 0.22745098 0.38039216 0.22745098
v -1.49216 0.13747 0.99899 0.22745098 0.38039216 0.22745098
v -1.49849 0.12845 1.00112 0.22745098 0.38039216 0.22745098
v -1.49849 0.12845 1.00112 0.22745098 0.38039216 0.22745098
v -1.49876 0.13641 0.99105 0.22745098 0.38039216 0.22745098
v -1.49216 0.13747 0.99899 0.22745098 0.38039216 0.22745098
v -1.49849 0.12845 1.00112 0.22745098 0.38039216 0.22745098
v -1.49216 0.13747 0.99899 0.22745098 0.38039216 0.22745098
v -1.49876 0.13641 0.99105 0.22745098 0.38039216 0.22745098
v 0.00119 0.12845 1.00144 0.22745098 0.38039216 0.22745098
v -0.00987 0.13244 0.99456 0.22745098 0.38039216 0.22745098
v 0.00335 0.13641 0.99162 0.22745098 0.38039216 0.22745098
v 0.00119 0.12845 1.00144 0.22745098 0.38039216 0.22745098
v 0.00335 0.13641 0.99162 0.22745098 0.38039216 0.22745098
v -0.00987 0.13244 0.99456 0.22745098 0.38039216 0.22745098
v 0.00119 0.12845 1.00144 0.22745098 0.38039216 0.22745098
v -0.00987 0.13244 0.99456 0.22745098 0.38039216 0.22745098
v 0.0002 0.11378 0.99912 0.22745098 0.38039216 0.22745098
v 0.00119 0.12845 1.00144 0.22745098 0.38039216 0.22745098
v 0.0002 0.11378 0.99912 0.22745098 0.38039216 0.22745098
v -0.00987 0.13244 0.99456 0.22745098 0.38039216 0.22745098
v 0.0002 0.11378 0.99912 0.22745098 0.38039216 0.22745098
v -0.01585 0.12408 0.9938 0.22745098 0.38039216 0.22745098
v -0.00987 0.13244 0.99456 0.22745098 0.38039216 0.22745098
v 0.0002 0.11378 0.99912 0.22745098 0.38039216 0.22745098
v -0.00987 0.13244 0.99456 0.22745098 0.38039216 0.22745098
v -0.01585 0.12408 0.9938 0.22745098 0.38039216 0.22745098
v 0.0002 0.11378 0.99912 0.22745098 0.38039216 0.22745098
v -0.01191 0.11231 0.9896 0.22745098 0.38039216 0.22745098
v -0.01585 0.12408 0.9938 0.22745098 0.38039216 0.22745098
v 0.0002 0.11378 0.99912 0.22745098 0.38039216 0.22745098
v -0.01585 0.12408 0.9938 0.22745098 0.38039216 0.22745098
v -0.01191 0.11231 0.9896 0.22745098 0.38039216 0.22745098
v 0.0002 0.11378 0.99912 0.22745098 0.38039216 0.22745098
v -0.00216 0.10852 0.99004 0.22745098 0.38039216 0.22745098
v -0.01191 0.11231 0.9896 0.22745098 0.38039216 0.22745098
v 0.0002 0.11378 0.99912 0.22745098 0.38039216 0.22745098
v -0.01191 0.11231 0.9896 0.22745098 0.38039216 0.22745098
v -0.00216 0.10852 0.99004 0.22745098 0.38039216 0.22745098
v 0.0002 0.11378 0.99912 0.22745098 0.38039216 0.22745098
v 0.0019 0.10734 0.9933 0.22745098 0.38039216 0.22745098
v -0.00216 0.10852 0.99004 0.22745098 0.38039216 0.22745098
v 0.0002 0.11378 0.99912 0.22745098 0.38039216 0.22745098
v -0.00216 0.10852 0.99004 0.22745098 0.38039216 0.22745098
v 0.0019 0.10734 0.9933 0.22745098 0.38039216 0.22745098
v 0.0002 0.11378 0.99912 0.22745098 0.38039216 0.22745098
v 0.01226 0.11012 0.99273 0.22745098 0.38039216 0.22745098
v 0.00584 0.10746 0.99388 0.22745098 0.38039216 0.22745098
v 0.0002 0.11378 0.99912 0.22745098 0.38039216 0.22745098
v 0.00584 0.10746 0.99388 0.22745098 0.38039216 0.22745098
v 0.01226 0.11012 0.99273 0.22745098 0.38039216 0.22745098
v 0.0002 0.11378 0.99912 0.22745098 0.38039216 0.22745098
v 0.01677 0.11561 0.99522 0.22745098 0.38039216 0.22745098
v 0.01226 0.11012 0.99273 0.22745098 0.38039216 0.22745098
v 0.0002 0.11378 0.99912 0.22745098 0.38039216 0.22745098
v 0.01226 0.11012 0.99273 0.22745098 0.38039216 0.22745098
v 0.01677 0.11561 0.99522 0.22745098 0.38039216 0.22745098
v 0.0002 0.11378 0.99912 0.22745098 0.38039216 0.22745098
v 0.0183 0.12683 1.00279 0.22745098 0.38039216 0.22745098
v 0.01677 0.11561 0.99522 0.22745098 0.38039216 0.22745098
v 0.0002 0.11378 0.99912 0.22745098 0.38039216 0.22745098
v 0.01677 0.11561 0.99522 0.22745098 0.38039216 0.22745098
v 0.0183 0.12683 1.00279 0.22745098 0.38039216 0.22745098
v 0.0002 0.11378 0.99912 0.22745098 0.38039216 0.22745098
v 0.00785 0.13747 1.0009 0.22745098 0.38039216 0.22745098
v 0.0183 0.12683 1.00279 0.22745098 0.38039216 0.22745098
v 0.0002 0.11378 0.99912 0.22745098 0.38039216 0.22745098
v 0.0183 0.12683 1.00279 0.22745098 0.38039216 0.22745098
v 0.00785 0.13747 1.0009 0.22745098 0.38039216 0.22745098
v 0.0002 0.11378 0.99912 0.22745098 0.38039216 0.22745098
v 0.00119 0.12845 1.00144 0.22745098 0.38039216 0.22745098
v 0.00785 0.13747 1.0009 0.22745098 0.38039216 0.22745098
v 0.0002 0.11378 0.99912 0.22745098 0.38039216 0.22745098
v 0.00785 0.13747 1.0009 0.22745098 0.38039216 0.22745098
v 0.00119 0.12845 1.00144 0.22745098 0.38039216 0.22745098
v 0.00119 0.12845 1.00144 0.22745098 0.38039216 0.22745098
v 0.00335 0.13641 0.99162 0.22745098 0.38039216 0.22745098
v 0.00785 0.13747 1.0009 0.22745098 0.38039216 0.22745098
v 0.00119 0.12845 1.00144 0.22745098 0.38039216 0.22745098
v 0.00785 0.13747 1.0009 0.22745098 0.38039216 0.22745098
v 0.00335 0.13641 0.99162 0.22745098 0.38039216 0.22745098
v 1.50121 0.12845 1.00143 0.22745098 0.38039216 0.22745098
v 1.49006 0.13244 0.9947 0.22745098 0.38039216 0.22745098
v 1.50324 0.13641 0.99157 0.22745098 0.38039216 0.22745098
v 1.50121 0.12845 1.00143 0.22745098 0.38039216 0.22745098
v 1.50324 0.13641 0.99157 0.22745098 0.38039216 0.22745098
v 1.49006 0.13244 0.9947 0.22745098 0.38039216 0.22745098
v 1.50121 0.12845 1.00143 0.22745098 0.38039216 0.22745098
v 1.49006 0.13244 0.9947 0.22745098 0.38039216 0.22745098
v 1.50019 0.11378 0.99912 0.22745098 0.38039216 0.22745098
v 1.50121 0.12845 1.00143 0.22745098 0.38039216 0.22745098
v 1.50019 0.11378 0.99912 0.22745098 0.38039216 0.22745098
v 1.49006 0.13244 0.9947 0.22745098 0.38039216 0.22745098
v 1.50019 0.11378 0.99912 0.22745098 0.38039216 0.22745098
v 1.48407 0.12408 0.99402 0.22745098 0.38039216 0.22745098
v 1.49006 0.13244 0.9947 0.22745098 0.38039216 0.22745098
v 1.50019 0.11378 0.99912 0.22745098 0.38039216 0.22745098
v 1.49006 0.13244 0.9947 0.22745098 0.38039216 0.22745098
v 1.48407 0.12408 0.99402 0.22745098 0.38039216 0.22745098
v 1.50019 0.11378 0.99912 0.22745098 0.38039216 0.22745098
v 1.48795 0.11231 0.98976 0.22745098 0.38039216 0.22745098
v 1.48407 0.12408 0.99402 0.22745098 0.38039216 0.22745098
v 1.50019 0.11378 0.99912 0.22745098 0.38039216 0.22745098
v 1.48407 0.12408 0.99402 0.22745098 0.38039216 0.22745098
v 1.48795 0.11231 0.98976 0.22745098 0.38039216 0.22745098
v 1.50019 0.11378 0.99912 0.22745098 0.38039216 0.22745098
v 1.49771 0.10852 0.99007 0.22745098 0.38039216 0.22745098
v 1.48795 0.11231 0.98976 0.22745098 0.38039216 0.22745098
v 1.50019 0.11378 0.99912 0.22745098 0.38039216 0.22745098
v 1.48795 0.11231 0.98976 0.22745098 0.38039216 0.22745098
v 1.49771 0.10852 0.99007 0.22745098 0.38039216 0.22745098
v 1.50019 0.11378 0.99912 0.22745098 0.38039216 0.22745098
v 1.50181 0.10734 0.99328 0.22745098 0.38039216 0.22745098
v 1.49771 0.10852 0.99007 0.22745098 0.38039216 0.22745098
v 1.50019 0.11378 0.99912 0.22745098 0.38039216 0.22745098
v 1.49771 0.10852 0.99007 0.22745098 0.38039216 0.22745098
v 1.50181 0.10734 0.99328 0.22745098 0.38039216 0.22745098
v 1.50019 0.11378 0.99912 0.22745098 0.38039216 0.22745098
v 1.51216 0.11012 0.99257 0.22745098 0.38039216 0.22745098
v 1.50576 0.10746 0.9938 0.22745098 0.38039216 0.22745098
v 1.50019 0.11378 0.99912 0.22745098 0.38039216 0.22745098
v 1.50576 0.10746 0.9938 0.22745098 0.38039216 0.22745098
v 1.51216 0.11012 0.99257 0.22745098 0.38039216 0.22745098
v 1.50019 0.11378 0.99912 0.22745098 0.38039216 0.22745098
v 1.5167 0.11561 0.99499 0.22745098 0.38039216 0.22745098
v 1.51216 0.11012 0.99257 0.22745098 0.38039216 0.22745098
v 1.50019 0.11378 0.99912 0.22745098 0.38039216 0.22745098
v 1.51216 0.11012 0.99257 0.22745098 0.38039216 0.22745098
v 1.5167 0.11561 0.99499 0.22745098 0.38039216 0.22745098
v 1.50019 0.11378 0.99912 0.22745098 0.38039216 0.22745098
v 1.51834 0.12683 1.00254 0.22745098 0.38039216 0.22745098
v 1.5167 0.11561 0.99499 0.22745098 0.38039216 0.22745098
v 1.50019 0.11378 0.99912 0.22745098 0.38039216 0.22745098
v 1.5167 0.11561 0.99499 0.22745098 0.38039216 0.22745098
v 1.51834 0.12683 1.00254 0.22745098 0.38039216 0.22745098
v 1.50019 0.11378 0.99912 0.22745098 0.38039216 0.22745098
v 1.50786 0.13747 1.00079 0.22745098 0.38039216 0.22745098
v 1.51834 0.12683 1.00254 0.22745098 0.38039216 0.22745098
v 1.50019 0.11378 0.99912 0.22745098 0.38039216 0.22745098
v 1.51834 0.12683 1.00254 0.22745098 0.38039216 0.22745098
v 1.50786 0.13747 1.00079 0.22745098 0.38039216 0.22745098
v 1.50019 0.11378 0.99912 0.22745098 0.38039216 0.22745098
v 1.50121 0.12845 1.00143 0.22745098 0.38039216 0.22745098
v 1.50786 0.13747 1.00079 0.22745098 0.38039216 0.22745098
v 1.50019 0.11378 0.99912 0.22745098 0.38039216 0.22745098
v 1.50786 0.13747 1.00079 0.22745098 0.38039216 0.22745098
v 1.50121 0.12845 1.00143 0.22745098 0.38039216 0.22745098
v 1.50121 0.12845 1.00143 0.22745098 0.38039216 0.22745098
v 1.50324 0.13641 0.99157 0.22745098 0.38039216 0.22745098
v 1.50786 0.13747 1.00079 0.22745098 0.38039216 0.22745098
v 1.50121 0.12845 1.00143 0.22745098 0.38039216 0.22745098
v 1.50786 0.13747 1.00079 0.22745098 0.38039216 0.22745098
v 1.50324 0.13641 0.99157 0.22745098 0.38039216 0.22745098
v -1.49879 0.12845 0.50143 0.22745098 0.38039216 0.22745098
v -1.50993 0.13244 0.49468 0.22745098 0.38039216 0.22745098
v -1.49675 0.13641 0.49158 0.22745098 0.38039216 0.22745098
v -1.49879 0.12845 0.50143 0.22745098 0.38039216 0.22745098
v -1.49675 0.13641 0.49158 0.22745098 0.38039216 0.22745098
v -1.50993 0.13244 0.49468 0.22745098 0.38039216 0.22745098
v -1.49879 0.12845 0.50143 0.22745098 0.38039216 0.22745098
v -1.50993 0.13244 0.49468 0.22745098 0.38039216 0.22745098
v -1.49981 0.11378 0.49912 0.22745098 0.38039216 0.22745098
v -1.49879 0.12845 0.50143 0.22745098 0.38039216 0.22745098
v -1.49981 0.11378 0.49912 0.22745098 0.38039216 0.22745098
v -1.50993 0.13244 0.49468 0.22745098 0.38039216 0.22745098
v -1.49981 0.11378 0.49912 0.22745098 0.38039216 0.22745098
v -1.51592 0.12408 0.49399 0.22745098 0.38039216 0.22745098
v -1.50993 0.13244 0.49468 0.22745098 0.38039216 0.22745098
v -1.49981 0.11378 0.49912 0.22745098 0.38039216 0.22745098
v -1.50993 0.13244 0.49468 0.22745098 0.38039216 0.22745098
v -1.51592 0.12408 0.49399 0.22745098 0.38039216 0.22745098
v -1.49981 0.11378 0.49912 0.22745098 0.38039216 0.22745098
v -1.51203 0.11231 0.48974 0.22745098 0.38039216 0.22745098
v -1.51592 0.12408 0.49399 0.22745098 0.38039216 0.22745098
v -1.49981 0.11378 0.49912 0.22745098 0.38039216 0.22745098
v -1.51592 0.12408 0.49399 0.22745098 0.38039216 0.22745098
v -1.51203 0.11231 0.48974 0.22745098 0.38039216 0.22745098
v -1.49981 0.11378 0.49912 0.22745098 0.38039216 0.22745098
v -1.50227 0.10852 0.49007 0.22745098 0.38039216 0.22745098
v -1.51203 0.11231 0.48974 0.22745098 0.38039216 0.22745098
v -1.49981 0.11378 0.49912 0.22745098 0.38039216 0.22745098
v -1.51203 0.11231 0.48974 0.22745098 0.38039216 0.22745098
v -1.50227 0.10852 0.49007 0.22745098 0.38039216 0.22745098
v -1.49981 0.11378 0.49912 0.22745098 0.38039216 0.22745098
v -1.49818 0.10734 0.49328 0.22745098 0.38039216 0.22745098
v -1.50227 0.10852 0.49007 0.22745098 0.38039216 0.22745098
v -1.49981 0.11378 0.49912 0.22745098 0.38039216 0.22745098
v -1.50227 0.10852 0.49007 0.22745098 0.38039216 0.22745098
v -1.49818 0.10734 0.49328 0.22745098 0.38039216 0.22745098
v -1.49981 0.11378 0.49912 0.22745098 0.38039216 0.22745098
v -1.48783 0.11012 0.49259 0.22745098 0.38039216 0.22745098
v -1.49423 0.10746 0.49381 0.22745098 0.38039216 0.22745098
v -1.49981 0.11378 0.49912 0.22745098 0.38039216 0.22745098
v -1.49423 0.10746 0.49381 0.22745098 0.38039216 0.22745098
v -1.48783 0.11012 0.49259 0.22745098 0.38039216 0.22745098
v -1.49981 0.11378 0.49912 0.22745098 0.38039216 0.22745098
v -1.48329 0.11561 0.49502 0.22745098 0.38039216 0.22745098
v -1.48783 0.11012 0.49259 0.22745098 0.38039216 0.22745098
v -1.49981 0.11378 0.49912 0.22745098 0.38039216 0.22745098
v -1.48783 0.11012 0.49259 0.22745098 0.38039216 0.22745098
v -1.48329 0.11561 0.49502 0.22745098 0.38039216 0.22745098
v -1.49981 0.11378 0.49912 0.22745098 0.38039216 0.22745098
v -1.48166 0.12683 0.50257 0.22745098 0.38039216 0.22745098
v -1.48329 0.11561 0.49502 0.22745098 0.38039216 0.22745098
v -1.49981 0.11378 0.49912 0.22745098 0.38039216 0.22745098
v -1.48329 0.11561 0.49502 0.22745098 0.38039216 0.22745098
v -1.48166 0.12683 0.50257 0.22745098 0.38039216 0.22745098
v -1.49981 0.11378 0.49912 0.22745098 0.38039216 0.22745098
v -1.49214 0.13747 0.50081 0.22745098 0.38039216 0.22745098
v -1.48166 0.12683 0.50257 0.22745098 0.38039216 0.22745098
v -1.49981 0.11378 0.49912 0.22745098 0.38039216 0.22745098
v -1.48166 0.12683 0.50257 0.22745098 0.38039216 0.22745098
v -1.49214 0.13747 0.50081 0.22745098 0.38039216 0.22745098
v -1.49981 0.11378 0.49912 0.22745098 0.38039216 0.22745098
v -1.49879 0.12845 0.50143 0.22745098 0.38039216 0.22745098
v -1.49214 0.13747 0.50081 0.22745098 0.38039216 0.22745098
v -1.49981 0.11378 0.49912 0.22745098 0.38039216 0.22745098
v -1.49214 0.13747 0.50081 0.22745098 0.38039216 0.22745098
v -1.49879 0.12845 0.50143 0.22745098 0.38039216 0.22745098
v -1.49879 0.12845 0.50143 0.22745098 0.38039216 0.22745098
v -1.49675 0.13641 0.49158 0.22745098 0.38039216 0.22745098
v -1.49214 0.13747 0.50081 0.22745098 0.38039216 0.22745098
v -1.49879 0.12845 0.50143 0.22745098 0.38039216 0.22745098
v -1.49214 0.13747 0.50081 0.22745098 0.38039216 0.22745098
v -1.49675 0.13641 0.49158 0.22745098 0.38039216 0.22745098
v 0.00142 0.12845 0.50122 0.22745098 0.38039216 0.22745098
v -0.01064 0.13244 0.49629 0.22745098 0.38039216 0.22745098
v 0.0019 0.13641 0.49117 0.22745098 0.38039216 0.22745098
v 0.00142 0.12845 0.50122 0.22745098 0.38039216 0.22745098
v 0.0019 0.13641 0.49117 0.22745098 0.38039216 0.22745098
v -0.01064 0.13244 0.49629 0.22745098 0.38039216 0.22745098
v 0.00142 0.12845 0.50122 0.22745098 0.38039216 0.22745098
v -0.01064 0.13244 0.49629 0.22745098 0.38039216 0.22745098
v 5e-05 0.11378 0.4991 0.22745098 0.38039216 0.22745098
v 0.00142 0.12845 0.50122 0.22745098 0.38039216 0.22745098
v 5e-05 0.11378 0.4991 0.22745098 0.38039216 0.22745098
v -0.01064 0.13244 0.49629 0.22745098 0.38039216 0.22745098
v 5e-05 0.11378 0.4991 0.22745098 0.38039216 0.22745098
v -0.01666 0.12408 0.49654 0.22745098 0.38039216 0.22745098
v -0.01064 0.13244 0.49629 0.22745098 0.38039216 0.22745098
v 5e-05 0.11378 0.4991 0.22745098 0.38039216 0.22745098
v -0.01064 0.13244 0.49629 0.22745098 0.38039216 0.22745098
v -0.01666 0.12408 0.49654 0.22745098 0.38039216 0.22745098
v 5e-05 0.11378 0.4991 0.22745098 0.38039216 0.22745098
v -0.01348 0.11231 0.49174 0.22745098 0.38039216 0.22745098
v -0.01666 0.12408 0.49654 0.22745098 0.38039216 0.22745098
v 5e-05 0.11378 0.4991 0.22745098 0.38039216 0.22745098
v -0.01666 0.12408 0.49654 0.22745098 0.38039216 0.22745098
v -0.01348 0.11231 0.49174 0.22745098 0.38039216 0.22745098
v 5e-05 0.11378 0.4991 0.22745098 0.38039216 0.22745098
v -0.00379 0.10852 0.49054 0.22745098 0.38039216 0.22745098
v -0.01348 0.11231 0.49174 0.22745098 0.38039216 0.22745098
v 5e-05 0.11378 0.4991 0.22745098 0.38039216 0.22745098
v -0.01348 0.11231 0.49174 0.22745098 0.38039216 0.22745098
v -0.00379 0.10852 0.49054 0.22745098 0.38039216 0.22745098
v 5e-05 0.11378 0.4991 0.22745098 0.38039216 0.22745098
v 0.00075 0.10734 0.49308 0.22745098 0.38039216 0.22745098
v -0.00379 0.10852 0.49054 0.22745098 0.38039216 0.22745098
v 5e-05 0.11378 0.4991 0.22745098 0.38039216 0.22745098
v -0.00379 0.10852 0.49054 0.22745098 0.38039216 0.22745098
v 0.00075 0.10734 0.49308 0.22745098 0.38039216 0.22745098
v 5e-05 0.11378 0.4991 0.22745098 0.38039216 0.22745098
v 0.01087 0.11012 0.49078 0.22745098 0.38039216 0.22745098
v 0.00473 0.10746 0.49299 0.22745098 0.38039216 0.22745098
v 5e-05 0.11378 0.4991 0.22745098 0.38039216 0.22745098
v 0.00473 0.10746 0.49299 0.22745098 0.38039216 0.22745098
v 0.01087 0.11012 0.49078 0.22745098 0.38039216 0.22745098
v 5e-05 0.11378 0.4991 0.22745098 0.38039216 0.22745098
v 0.01573 0.11561 0.49248 0.22745098 0.38039216 0.22745098
v 0.01087 0.11012 0.49078 0.22745098 0.38039216 0.22745098
v 5e-05 0.11378 0.4991 0.22745098 0.38039216 0.22745098
v 0.01087 0.11012 0.49078 0.22745098 0.38039216 0.22745098
v 0.01573 0.11561 0.49248 0.22745098 0.38039216 0.22745098
v 5e-05 0.11378 0.4991 0.22745098 0.38039216 0.22745098
v 0.01851 0.12683 0.49969 0.22745098 0.38039216 0.22745098
v 0.01573 0.11561 0.49248 0.22745098 0.38039216 0.22745098
v 5e-05 0.11378 0.4991 0.22745098 0.38039216 0.22745098
v 0.01573 0.11561 0.49248 0.22745098 0.38039216 0.22745098
v 0.01851 0.12683 0.49969 0.22745098 0.38039216 0.22745098
v 5e-05 0.11378 0.4991 0.22745098 0.38039216 0.22745098
v 0.00789 0.13747 0.49957 0.22745098 0.38039216 0.22745098
v 0.01851 0.12683 0.49969 0.22745098 0.38039216 0.22745098
v 5e-05 0.11378 0.4991 0.22745098 0.38039216 0.22745098
v 0.01851 0.12683 0.49969 0.22745098 0.38039216 0.22745098
v 0.00789 0.13747 0.49957 0.22745098 0.38039216 0.22745098
v 5e-05 0.11378 0.4991 0.22745098 0.38039216 0.22745098
v 0.00142 0.12845 0.50122 0.22745098 0.38039216 0.22745098
v 0.00789 0.13747 0.49957 0.22745098 0.38039216 0.22745098
v 5e-05 0.11378 0.4991 0.22745098 0.38039216 0.22745098
v 0.00789 0.13747 0.49957 0.22745098 0.38039216 0.22745098
v 0.00142 0.12845 0.50122 0.22745098 0.38039216 0.22745098
v 0.00142 0.12845 0.50122 0.22745098 0.38039216 0.22745098
v 0.0019 0.13641 0.49117 0.22745098 0.38039216 0.22745098
v 0.00789 0.13747 0.49957 0.22745098 0.38039216 0.22745098
v 0.00142 0.12845 0.50122 0.22745098 0.38039216 0.22745098
v 0.00789 0.13747 0.49957 0.22745098 0.38039216 0.22745098
v 0.0019 0.13641 0.49117 0.22745098 0.38039216 0.22745098
v 1.50127 0.12845 0.50138 0.22745098 0.38039216 0.22745098
v 1.48987 0.13244 0.49507 0.22745098 0.38039216 0.22745098
v 1.50293 0.13641 0.49146 0.22745098 0.38039216 0.22745098
v 1.50127 0.12845 0.50138 0.22745098 0.38039216 0.22745098
v 1.50293 0.13641 0.49146 0.22745098 0.38039216 0.22745098
v 1.48987 0.13244 0.49507 0.22745098 0.38039216 0.22745098
v 1.50127 0.12845 0.50138 0.22745098 0.38039216 0.22745098
v 1.48987 0.13244 0.49507 0.22745098 0.38039216 0.22745098
v 1.50015 0.11378 0.49911 0.22745098 0.38039216 0.22745098
v 1.50127 0.12845 0.50138 0.22745098 0.38039216 0.22745098
v 1.50015 0.11378 0.49911 0.22745098 0.38039216 0.22745098
v 1.48987 0.13244 0.49507 0.22745098 0.38039216 0.22745098
v 1.50015 0.11378 0.49911 0.22745098 0.38039216 0.22745098
v 1.48386 0.12408 0.49461 0.22745098 0.38039216 0.22745098
v 1.48987 0.13244 0.49507 0.22745098 0.38039216 0.22745098
v 1.50015 0.11378 0.49911 0.22745098 0.38039216 0.22745098
v 1.48987 0.13244 0.49507 0.22745098 0.38039216 0.22745098
v 1.48386 0.12408 0.49461 0.22745098 0.38039216 0.22745098
v 1.50015 0.11378 0.49911 0.22745098 0.38039216 0.22745098
v 1.48758 0.11231 0.49021 0.22745098 0.38039216 0.22745098
v 1.48386 0.12408 0.49461 0.22745098 0.38039216 0.22745098
v 1.50015 0.11378 0.49911 0.22745098 0.38039216 0.22745098
v 1.48386 0.12408 0.49461 0.22745098 0.38039216 0.22745098
v 1.48758 0.11231 0.49021 0.22745098 0.38039216 0.22745098
v 1.50015 0.11378 0.49911 0.22745098 0.38039216 0.22745098
v 1.49735 0.10852 0.49016 0.22745098 0.38039216 0.22745098
v 1.48758 0.11231 0.49021 0.22745098 0.38039216 0.22745098
v 1.50015 0.11378 0.49911 0.22745098 0.38039216 0.22745098
v 1.48758 0.11231 0.49021 0.22745098 0.38039216 0.22745098
v 1.49735 0.10852 0.49016 0.22745098 0.38039216 0.22745098
v 1.50015 0.11378 0.49911 0.22745098 0.38039216 0.22745098
v 1.50156 0.10734 0.49321 0.22745098 0.38039216 0.22745098
v 1.49735 0.10852 0.49016 0.22745098 0.38039216 0.22745098
v 1.50015 0.11378 0.49911 0.22745098 0.38039216 0.22745098
v 1.49735 0.10852 0.49016 0.22745098 0.38039216 0.22745098
v 1.50156 0.10734 0.49321 0.22745098 0.38039216 0.22745098
v 1.50015 0.11378 0.49911 0.22745098 0.38039216 0.22745098
v 1.51188 0.11012 0.49212 0.22745098 0.38039216 0.22745098
v 1.50552 0.10746 0.49359 0.22745098 0.38039216 0.22745098
v 1.50015 0.11378 0.49911 0.22745098 0.38039216 0.22745098
v 1.50552 0.10746 0.49359 0.22745098 0.38039216 0.22745098
v 1.51188 0.11012 0.49212 0.22745098 0.38039216 0.22745098
v 1.50015 0.11378 0.49911 0.22745098 0.38039216 0.22745098
v 1.5165 0.11561 0.49438 0.22745098 0.38039216 0.22745098
v 1.51188 0.11012 0.49212 0.22745098 0.38039216 0.22745098
v 1.50015 0.11378 0.49911 0.22745098 0.38039216 0.22745098
v 1.51188 0.11012 0.49212 0.22745098 0.38039216 0.22745098
v 1.5165 0.11561 0.49438 0.22745098 0.38039216 0.22745098
v 1.50015 0.11378 0.49911 0.22745098 0.38039216 0.22745098
v 1.51842 0.12683 0.50186 0.22745098 0.38039216 0.22745098
v 1.5165 0.11561 0.49438 0.22745098 0.38039216 0.22745098
v 1.50015 0.11378 0.49911 0.22745098 0.38039216 0.22745098
v 1.5165 0.11561 0.49438 0.22745098 0.38039216 0.22745098
v 1.51842 0.12683 0.50186 0.22745098 0.38039216 0.22745098
v 1.50015 0.11378 0.49911 0.22745098 0.38039216 0.22745098
v 1.50789 0.13747 0.5005 0.22745098 0.38039216 0.22745098
v 1.51842 0.12683 0.50186 0.22745098 0.38039216 0.22745098
v 1.50015 0.11378 0.49911 0.22745098 0.38039216 0.22745098
v 1.51842 0.12683 0.50186 0.22745098 0.38039216 0.22745098
v 1.50789 0.13747 0.5005 0.22745098 0.38039216 0.22745098
v 1.50015 0.11378 0.49911 0.22745098 0.38039216 0.22745098
v 1.50127 0.12845 0.50138 0.22745098 0.38039216 0.22745098
v 1.50789 0.13747 0.5005 0.22745098 0.38039216 0.22745098
v 1.50015 0.11378 0.49911 0.22745098 0.38039216 0.22745098
v 1.50789 0.13747 0.5005 0.22745098 0.38039216 0.22745098
v 1.50127 0.12845 0.50138 0.22745098 0.38039216 0.22745098
v 1.50127 0.12845 0.50138 0.22745098 0.38039216 0.22745098
v 1.50293 0.13641 0.49146 0.22745098 0.38039216 0.22745098
v 1.50789 0.13747 0.5005 0.22745098 0.38039216 0.22745098
v 1.50127 0.12845 0.50138 0.22745098 0.38039216 0.22745098
v 1.50789 0.13747 0.5005 0.22745098 0.38039216 0.22745098
v 1.50293 0.13641 0.49146 0.22745098 0.38039216 0.22745098
v -1.49863 0.12845 0.00128 0.22745098 0.38039216 0.22745098
v -1.51048 0.13244 -0.00415 0.22745098 0.38039216 0.22745098
v -1.49773 0.13641 -0.00874 0.22745098 0.38039216 0.22745098
v -1.49863 0.12845 0.00128 0.22745098 0.38039216 0.22745098
v -1.49773 0.13641 -0.00874 0.22745098 0.38039216 0.22745098
v -1.51048 0.13244 -0.00415 0.22745098 0.38039216 0.22745098
v -1.49863 0.12845 0.00128 0.22745098 0.38039216 0.22745098
v -1.51048 0.13244 -0.00415 0.22745098 0.38039216 0.22745098
v -1.49991 0.11378 -0.0009 0.22745098 0.38039216 0.22745098
v -1.49863 0.12845 0.00128 0.22745098 0.38039216 0.22745098
v -1.49991 0.11378 -0.0009 0.22745098 0.38039216 0.22745098
v -1.51048 0.13244 -0.00415 0.22745098 0.38039216 0.22745098
v -1.49991 0.11378 -0.0009 0.22745098 0.38039216 0.22745098
v -1.5165 0.12408 -0.00415 0.22745098 0.38039216 0.22745098
v -1.51048 0.13244 -0.00415 0.22745098 0.38039216 0.22745098
v -1.49991 0.11378 -0.0009 0.22745098 0.38039216 0.22745098
v -1.51048 0.13244 -0.00415 0.22745098 0.38039216 0.22745098
v -1.5165 0.12408 -0.00415 0.22745098 0.38039216 0.22745098
v -1.49991 0.11378 -0.0009 0.22745098 0.38039216 0.22745098
v -1.51312 0.11231 -0.00882 0.22745098 0.38039216 0.22745098
v -1.5165 0.12408 -0.00415 0.22745098 0.38039216 0.22745098
v -1.49991 0.11378 -0.0009 0.22745098 0.38039216 0.22745098
v -1.5165 0.12408 -0.00415 0.22745098 0.38039216 0.22745098
v -1.51312 0.11231 -0.00882 0.22745098 0.38039216 0.22745098
v -1.49991 0.11378 -0.0009 0.22745098 0.38039216 0.22745098
v -1.50339 0.10852 -0.00961 0.22745098 0.38039216 0.22745098
v -1.51312 0.11231 -0.00882 0.22745098 0.38039216 0.22745098
v -1.49991 0.11378 -0.0009 0.22745098 0.38039216 0.22745098
v -1.51312 0.11231 -0.00882 0.22745098 0.38039216 0.22745098
v -1.50339 0.10852 -0.00961 0.22745098 0.38039216 0.22745098
v -1.49991 0.11378 -0.0009 0.22745098 0.38039216 0.22745098
v -1.49896 0.10734 -0.00688 0.22745098 0.38039216 0.22745098
v -1.50339 0.10852 -0.00961 0.22745098 0.38039216 0.22745098
v -1.49991 0.11378 -0.0009 0.22745098 0.38039216 0.22745098
v -1.50339 0.10852 -0.00961 0.22745098 0.38039216 0.22745098
v -1.49896 0.10734 -0.00688 0.22745098 0.38039216 0.22745098
v -1.49991 0.11378 -0.0009 0.22745098 0.38039216 0.22745098
v -1.48875 0.11012 -0.00875 0.22745098 0.38039216 0.22745098
v -1.49498 0.10746 -0.00681 0.22745098 0.38039216 0.22745098
v -1.49991 0.11378 -0.0009 0.22745098 0.38039216 0.22745098
v -1.49498 0.10746 -0.00681 0.22745098 0.38039216 0.22745098
v -1.48875 0.11012 -0.00875 0.22745098 0.38039216 0.22745098
v -1.49991 0.11378 -0.0009 0.22745098 0.38039216 0.22745098
v -1.48397 0.11561 -0.00686 0.22745098 0.38039216 0.22745098
v -1.48875 0.11012 -0.00875 0.22745098 0.38039216 0.22745098
v -1.49991 0.11378 -0.0009 0.22745098 0.38039216 0.22745098
v -1.48875 0.11012 -0.00875 0.22745098 0.38039216 0.22745098
v -1.48397 0.11561 -0.00686 0.22745098 0.38039216 0.22745098
v -1.49991 0.11378 -0.0009 0.22745098 0.38039216 0.22745098
v -1.48149 0.12683 0.00046 0.22745098 0.38039216 0.22745098
v -1.48397 0.11561 -0.00686 0.22745098 0.38039216 0.22745098
v -1.49991 0.11378 -0.0009 0.22745098 0.38039216 0.22745098
v -1.48397 0.11561 -0.00686 0.22745098 0.38039216 0.22745098
v -1.48149 0.12683 0.00046 0.22745098 0.38039216 0.22745098
v -1.49991 0.11378 -0.0009 0.22745098 0.38039216 0.22745098
v -1.4921 0.13747 -0.0001 0.22745098 0.38039216 0.22745098
v -1.48149 0.12683 0.00046 0.22745098 0.38039216 0.22745098
v -1.49991 0.11378 -0.0009 0.22745098 0.38039216 0.22745098
v -1.48149 0.12683 0.00046 0.22745098 0.38039216 0.22745098
v -1.4921 0.13747 -0.0001 0.22745098 0.38039216 0.22745098
v -1.49991 0.11378 -0.0009 0.22745098 0.38039216 0.22745098
v -1.49863 0.12845 0.00128 0.22745098 0.38039216 0.22745098
v -1.4921 0.13747 -0.0001 0.22745098 0.38039216 0.22745098
v -1.49991 0.11378 -0.0009 0.22745098 0.38039216 0.22745098
v -1.4921 0.13747 -0.0001 0.22745098 0.38039216 0.22745098
v -1.49863 0.12845 0.00128 0.22745098 0.38039216 0.22745098
v -1.49863 0.12845 0.00128 0.22745098 0.38039216 0.22745098
v -1.49773 0.13641 -0.00874 0.22745098 0.38039216 0.22745098
v -1.4921 0.13747 -0.0001 0.22745098 0.38039216 0.22745098
v -1.49863 0.12845 0.00128 0.22745098 0.38039216 0.22745098
v -1.4921 0.13747 -0.0001 0.22745098 0.38039216 0.22745098
v -1.49773 0.13641 -0.00874 0.22745098 0.38039216 0.22745098
v 0.00159 0.12845 0.00099 0.22745098 0.38039216 0.22745098
v -0.01108 0.13244 -0.00205 0.22745098 0.38039216 0.22745098
v 0.00054 0.13641 -0.00901 0.22745098 0.38039216 0.22745098
v 0.00159 0.12845 0.00099 0.22745098 0.38039216 0.22745098
v 0.00054 0.13641 -0.00901 0.22745098 0.38039216 0.22745098
v -0.01108 0.13244 -0.00205 0.22745098 0.38039216 0.22745098
v 0.00159 0.12845 0.00099 0.22745098 0.38039216 0.22745098
v -0.01108 0.13244 -0.00205 0.22745098 0.38039216 0.22745098
v -9e-05 0.11378 -0.0009 0.22745098 0.38039216 0.22745098
v 0.00159 0.12845 0.00099 0.22745098 0.38039216 0.22745098
v -9e-05 0.11378 -0.0009 0.22745098 0.38039216 0.22745098
v -0.01108 0.13244 -0.00205 0.22745098 0.38039216 0.22745098
v -9e-05 0.11378 -0.0009 0.22745098 0.38039216 0.22745098
v -0.01699 0.12408 -0.00089 0.22745098 0.38039216 0.22745098
v -0.01108 0.13244 -0.00205 0.22745098 0.38039216 0.22745098
v -9e-05 0.11378 -0.0009 0.22745098 0.38039216 0.22745098
v -0.01108 0.13244 -0.00205 0.22745098 0.38039216 0.22745098
v -0.01699 0.12408 -0.00089 0.22745098 0.38039216 0.22745098
v -9e-05 0.11378 -0.0009 0.22745098 0.38039216 0.22745098
v -0.01458 0.11231 -0.00611 0.22745098 0.38039216 0.22745098
v -0.01699 0.12408 -0.00089 0.22745098 0.38039216 0.22745098
v -9e-05 0.11378 -0.0009 0.22745098 0.38039216 0.22745098
v -0.01699 0.12408 -0.00089 0.22745098 0.38039216 0.22745098
v -0.01458 0.11231 -0.00611 0.22745098 0.38039216 0.22745098
v -9e-05 0.11378 -0.0009 0.22745098 0.38039216 0.22745098
v -0.00519 0.10852 -0.00877 0.22745098 0.38039216 0.22745098
v -0.01458 0.11231 -0.00611 0.22745098 0.38039216 0.22745098
v -9e-05 0.11378 -0.0009 0.22745098 0.38039216 0.22745098
v -0.01458 0.11231 -0.00611 0.22745098 0.38039216 0.22745098
v -0.00519 0.10852 -0.00877 0.22745098 0.38039216 0.22745098
v -9e-05 0.11378 -0.0009 0.22745098 0.38039216 0.22745098
v -0.00031 0.10734 -0.00696 0.22745098 0.38039216 0.22745098
v -0.00519 0.10852 -0.00877 0.22745098 0.38039216 0.22745098
v -9e-05 0.11378 -0.0009 0.22745098 0.38039216 0.22745098
v -0.00519 0.10852 -0.00877 0.22745098 0.38039216 0.22745098
v -0.00031 0.10734 -0.00696 0.22745098 0.38039216 0.22745098
v -9e-05 0.11378 -0.0009 0.22745098 0.38039216 0.22745098
v 0.00934 0.11012 -0.01076 0.22745098 0.38039216 0.22745098
v 0.00361 0.10746 -0.00765 0.22745098 0.38039216 0.22745098
v -9e-05 0.11378 -0.0009 0.22745098 0.38039216 0.22745098
v 0.00361 0.10746 -0.00765 0.22745098 0.38039216 0.22745098
v 0.00934 0.11012 -0.01076 0.22745098 0.38039216 0.22745098
v -9e-05 0.11378 -0.0009 0.22745098 0.38039216 0.22745098
v 0.0144 0.11561 -0.00983 0.22745098 0.38039216 0.22745098
v 0.00934 0.11012 -0.01076 0.22745098 0.38039216 0.22745098
v -9e-05 0.11378 -0.0009 0.22745098 0.38039216 0.22745098
v 0.00934 0.11012 -0.01076 0.22745098 0.38039216 0.22745098
v 0.0144 0.11561 -0.00983 0.22745098 0.38039216 0.22745098
v -9e-05 0.11378 -0.0009 0.22745098 0.38039216 0.22745098
v 0.01825 0.12683 -0.00312 0.22745098 0.38039216 0.22745098
v 0.0144 0.11561 -0.00983 0.22745098 0.38039216 0.22745098
v -9e-05 0.11378 -0.0009 0.22745098 0.38039216 0.22745098
v 0.0144 0.11561 -0.00983 0.22745098 0.38039216 0.22745098
v 0.01825 0.12683 -0.00312 0.22745098 0.38039216 0.22745098
v -9e-05 0.11378 -0.0009 0.22745098 0.38039216 0.22745098
v 0.00774 0.13747 -0.00162 0.22745098 0.38039216 0.22745098
v 0.01825 0.12683 -0.00312 0.22745098 0.38039216 0.22745098
v -9e-05 0.11378 -0.0009 0.22745098 0.38039216 0.22745098
v 0.01825 0.12683 -0.00312 0.22745098 0.38039216 0.22745098
v 0.00774 0.13747 -0.00162 0.22745098 0.38039216 0.22745098
v -9e-05 0.11378 -0.0009 0.22745098 0.38039216 0.22745098
v 0.00159 0.12845 0.00099 0.22745098 0.38039216 0.22745098
v 0.00774 0.13747 -0.00162 0.22745098 0.38039216 0.22745098
v -9e-05 0.11378 -0.0009 0.22745098 0.38039216 0.22745098
v 0.00774 0.13747 -0.00162 0.22745098 0.38039216 0.22745098
v 0.00159 0.12845 0.00099 0.22745098 0.38039216 0.22745098
v 0.00159 0.12845 0.00099 0.22745098 0.38039216 0.22745098
v 0.00054 0.13641 -0.00901 0.22745098 0.38039216 0.22745098
v 0.00774 0.13747 -0.00162 0.22745098 0.38039216 0.22745098
v 0.00159 0.12845 0.00099 0.22745098 0.38039216 0.22745098
v 0.00774 0.13747 -0.00162 0.22745098 0.38039216 0.22745098
v 0.00054 0.13641 -0.00901 0.22745098 0.38039216 0.22745098
v 1.5017 0.12845 0.0008 0.22745098 0.38039216 0.22745098
v 1.48875 0.13244 -0.0007 0.22745098 0.38039216 0.22745098
v 1.49945 0.13641 -0.00901 0.22745098 0.38039216 0.22745098
v 1.5017 0.12845 0.0008 0.22745098 0.38039216 0.22745098
v 1.49945 0.13641 -0.00901 0.22745098 0.38039216 0.22745098
v 1.48875 0.13244 -0.0007 0.22745098 0.38039216 0.22745098
v 1.5017 0.12845 0.0008 0.22745098 0.38039216 0.22745098
v 1.48875 0.13244 -0.0007 0.22745098 0.38039216 0.22745098
v 1.4998 0.11378 -0.00088 0.22745098 0.38039216 0.22745098
v 1.5017 0.12845 0.0008 0.22745098 0.38039216 0.22745098
v 1.4998 0.11378 -0.00088 0.22745098 0.38039216 0.22745098
v 1.48875 0.13244 -0.0007 0.22745098 0.38039216 0.22745098
v 1.4998 0.11378 -0.00088 0.22745098 0.38039216 0.22745098
v 1.48302 0.12408 0.00116 0.22745098 0.38039216 0.22745098
v 1.48875 0.13244 -0.0007 0.22745098 0.38039216 0.22745098
v 1.4998 0.11378 -0.00088 0.22745098 0.38039216 0.22745098
v 1.48875 0.13244 -0.0007 0.22745098 0.38039216 0.22745098
v 1.48302 0.12408 0.00116 0.22745098 0.38039216 0.22745098
v 1.4998 0.11378 -0.00088 0.22745098 0.38039216 0.22745098
v 1.48479 0.11231 -0.00432 0.22745098 0.38039216 0.22745098
v 1.48302 0.12408 0.00116 0.22745098 0.38039216 0.22745098
v 1.4998 0.11378 -0.00088 0.22745098 0.38039216 0.22745098
v 1.48302 0.12408 0.00116 0.22745098 0.38039216 0.22745098
v 1.48479 0.11231 -0.00432 0.22745098 0.38039216 0.22745098
v 1.4998 0.11378 -0.00088 0.22745098 0.38039216 0.22745098
v 1.4938 0.10852 -0.00809 0.22745098 0.38039216 0.22745098
v 1.48479 0.11231 -0.00432 0.22745098 0.38039216 0.22745098
v 1.4998 0.11378 -0.00088 0.22745098 0.38039216 0.22745098
v 1.48479 0.11231 -0.00432 0.22745098 0.38039216 0.22745098
v 1.4938 0.10852 -0.00809 0.22745098 0.38039216 0.22745098
v 1.4998 0.11378 -0.00088 0.22745098 0.38039216 0.22745098
v 1.49886 0.10734 -0.00687 0.22745098 0.38039216 0.22745098
v 1.4938 0.10852 -0.00809 0.22745098 0.38039216 0.22745098
v 1.4998 0.11378 -0.00088 0.22745098 0.38039216 0.22745098
v 1.4938 0.10852 -0.00809 0.22745098 0.38039216 0.22745098
v 1.49886 0.10734 -0.00687 0.22745098 0.38039216 0.22745098
v 1.4998 0.11378 -0.00088 0.22745098 0.38039216 0.22745098
v 1.50798 0.11012 -0.0118 0.22745098 0.38039216 0.22745098
v 1.50267 0.10746 -0.00803 0.22745098 0.38039216 0.22745098
v 1.4998 0.11378 -0.00088 0.22745098 0.38039216 0.22745098
v 1.50267 0.10746 -0.00803 0.22745098 0.38039216 0.22745098
v 1.50798 0.11012 -0.0118 0.22745098 0.38039216 0.22745098
v 1.4998 0.11378 -0.00088 0.22745098 0.38039216 0.22745098
v 1.51312 0.11561 -0.01148 0.22745098 0.38039216 0.22745098
v 1.50798 0.11012 -0.0118 0.22745098 0.38039216 0.22745098
v 1.4998 0.11378 -0.00088 0.22745098 0.38039216 0.22745098
v 1.50798 0.11012 -0.0118 0.22745098 0.38039216 0.22745098
v 1.51312 0.11561 -0.01148 0.22745098 0.38039216 0.22745098
v 1.4998 0.11378 -0.00088 0.22745098 0.38039216 0.22745098
v 1.51774 0.12683 -0.00529 0.22745098 0.38039216 0.22745098
v 1.51312 0.11561 -0.01148 0.22745098 0.38039216 0.22745098
v 1.4998 0.11378 -0.00088 0.22745098 0.38039216 0.22745098
v 1.51312 0.11561 -0.01148 0.22745098 0.38039216 0.22745098
v 1.51774 0.12683 -0.00529 0.22745098 0.38039216 0.22745098
v 1.4998 0.11378 -0.00088 0.22745098 0.38039216 0.22745098
v 1.50749 0.13747 -0.00254 0.22745098 0.38039216 0.22745098
v 1.51774 0.12683 -0.00529 0.22745098 0.38039216 0.22745098
v 1.4998 0.11378 -0.00088 0.22745098 0.38039216 0.22745098
v 1.51774 0.12683 -0.00529 0.22745098 0.38039216 0.22745098
v 1.50749 0.13747 -0.00254 0.22745098 0.38039216 0.22745098
v 1.4998 0.11378 -0.00088 0.22745098 0.38039216 0.22745098
v 1.5017 0.12845 0.0008 0.22745098 0.38039216 0.22745098
v 1.50749 0.13747 -0.00254 0.22745098 0.38039216 0.22745098
v 1.4998 0.11378 -0.00088 0.22745098 0.38039216 0.22745098
v 1.50749 0.13747 -0.00254 0.22745098 0.38039216 0.22745098
v 1.5017 0.12845 0.0008 0.22745098 0.38039216 0.22745098
v 1.5017 0.12845 0.0008 0.22745098 0.38039216 0.22745098
v 1.49945 0.13641 -0.00901 0.22745098 0.38039216 0.22745098
v 1.50749 0.13747 -0.00254 0.22745098 0.38039216 0.22745098
v 1.5017 0.12845 0.0008 0.22745098 0.38039216 0.22745098
v 1.50749 0.13747 -0.00254 0.22745098 0.38039216 0.22745098
v 1.49945 0.13641 -0.00901 0.22745098 0.38039216 0.22745098
v -1.49874 0.12845 -0.49861 0.22745098 0.38039216 0.22745098
v -1.5101 0.13244 -0.50499 0.22745098 0.38039216 0.22745098
v -1.49702 0.13641 -0.50852 0.22745098 0.38039216 0.22745098
v -1.49874 0.12845 -0.49861 0.22745098 0.38039216 0.22745098
v -1.49702 0.13641 -0.50852 0.22745098 0.38039216 0.22745098
v -1.5101 0.13244 -0.50499 0.22745098 0.38039216 0.22745098
v -1.49874 0.12845 -0.49861 0.22745098 0.38039216 0.22745098
v -1.5101 0.13244 -0.50499 0.22745098 0.38039216 0.22745098
v -1.49984 0.11378 -0.50089 0.22745098 0.38039216 0.22745098
v -1.49874 0.12845 -0.49861 0.22745098 0.38039216 0.22745098
v -1.49984 0.11378 -0.50089 0.22745098 0.38039216 0.22745098
v -1.5101 0.13244 -0.50499 0.22745098 0.38039216 0.22745098
v -1.49984 0.11378 -0.50089 0.22745098 0.38039216 0.22745098
v -1.51611 0.12408 -0.50549 0.22745098 0.38039216 0.22745098
v -1.5101 0.13244 -0.50499 0.22745098 0.38039216 0.22745098
v -1.49984 0.11378 -0.50089 0.22745098 0.38039216 0.22745098
v -1.5101 0.13244 -0.50499 0.22745098 0.38039216 0.22745098
v -1.51611 0.12408 -0.50549 0.22745098 0.38039216 0.22745098
v -1.49984 0.11378 -0.50089 0.22745098 0.38039216 0.22745098
v -1.51236 0.11231 -0.50986 0.22745098 0.38039216 0.22745098
v -1.51611 0.12408 -0.50549 0.22745098 0.38039216 0.22745098
v -1.49984 0.11378 -0.50089 0.22745098 0.38039216 0.22745098
v -1.51611 0.12408 -0.50549 0.22745098 0.38039216 0.22745098
v -1.51236 0.11231 -0.50986 0.22745098 0.38039216 0.22745098
v -1.49984 0.11378 -0.50089 0.22745098 0.38039216 0.22745098
v -1.50259 0.10852 -0.50985 0.22745098 0.38039216 0.22745098
v -1.51236 0.11231 -0.50986 0.22745098 0.38039216 0.22745098
v -1.49984 0.11378 -0.50089 0.22745098 0.38039216 0.22745098
v -1.51236 0.11231 -0.50986 0.22745098 0.38039216 0.22745098
v -1.50259 0.10852 -0.50985 0.22745098 0.38039216 0.22745098
v -1.49984 0.11378 -0.50089 0.22745098 0.38039216 0.22745098
v -1.4984 0.10734 -0.50678 0.22745098 0.38039216 0.22745098
v -1.50259 0.10852 -0.50985 0.22745098 0.38039216 0.22745098
v -1.49984 0.11378 -0.50089 0.22745098 0.38039216 0.22745098
v -1.50259 0.10852 -0.50985 0.22745098 0.38039216 0.22745098
v -1.4984 0.10734 -0.50678 0.22745098 0.38039216 0.22745098
v -1.49984 0.11378 -0.50089 0.22745098 0.38039216 0.22745098
v -1.48807 0.11012 -0.5078 0.22745098 0.38039216 0.22745098
v -1.49444 0.10746 -0.50637 0.22745098 0.38039216 0.22745098
v -1.49984 0.11378 -0.50089 0.22745098 0.38039216 0.22745098
v -1.49444 0.10746 -0.50637 0.22745098 0.38039216 0.22745098
v -1.48807 0.11012 -0.5078 0.22745098 0.38039216 0.22745098
v -1.49984 0.11378 -0.50089 0.22745098 0.38039216 0.22745098
v -1.48346 0.11561 -0.50552 0.22745098 0.38039216 0.22745098
v -1.48807 0.11012 -0.5078 0.22745098 0.38039216 0.22745098
v -1.49984 0.11378 -0.50089 0.22745098 0.38039216 0.22745098
v -1.48807 0.11012 -0.5078 0.22745098 0.38039216 0.22745098
v -1.48346 0.11561 -0.50552 0.22745098 0.38039216 0.22745098
v -1.49984 0.11378 -0.50089 0.22745098 0.38039216 0.22745098
v -1.48159 0.12683 -0.49802 0.22745098 0.38039216 0.22745098
v -1.48346 0.11561 -0.50552 0.22745098 0.38039216 0.22745098
v -1.49984 0.11378 -0.50089 0.22745098 0.38039216 0.22745098
v -1.48346 0.11561 -0.50552 0.22745098 0.38039216 0.22745098
v -1.48159 0.12683 -0.49802 0.22745098 0.38039216 0.22745098
v -1.49984 0.11378 -0.50089 0.22745098 0.38039216 0.22745098
v -1.49212 0.13747 -0.49945 0.22745098 0.38039216 0.22745098
v -1.48159 0.12683 -0.49802 0.22745098 0.38039216 0.22745098
v -1.49984 0.11378 -0.50089 0.22745098 0.38039216 0.22745098
v -1.48159 0.12683 -0.49802 0.22745098 0.38039216 0.22745098
v -1.49212 0.13747 -0.49945 0.22745098 0.38039216 0.22745098
v -1.49984 0.11378 -0.50089 0.22745098 0.38039216 0.22745098
v -1.49874 0.12845 -0.49861 0.22745098 0.38039216 0.22745098
v -1.49212 0.13747 -0.49945 0.22745098 0.38039216 0.22745098
v -1.49984 0.11378 -0.50089 0.22745098 0.38039216 0.22745098
v -1.49212 0.13747 -0.49945 0.22745098 0.38039216 0.22745098
v -1.49874 0.12845 -0.49861 0.22745098 0.38039216 0.22745098
v -1.49874 0.12845 -0.49861 0.22745098 0.38039216 0.22745098
v -1.49702 0.13641 -0.50852 0.22745098 0.38039216 0.22745098
v -1.49212 0.13747 -0.49945 0.22745098 0.38039216 0.22745098
v -1.49874 0.12845 -0.49861 0.22745098 0.38039216 0.22745098
v -1.49212 0.13747 -0.49945 0.22745098 0.38039216 0.22745098
v -1.49702 0.13641 -0.50852 0.22745098 0.38039216 0.22745098
v 0.00149 0.12845 -0.49886 0.22745098 0.38039216 0.22745098
v -0.01085 0.13244 -0.50305 0.22745098 0.38039216 0.22745098
v 0.00136 0.13641 -0.50893 0.22745098 0.38039216 0.22745098
v 0.00149 0.12845 -0.49886 0.22745098 0.38039216 0.22745098
v 0.00136 0.13641 -0.50893 0.22745098 0.38039216 0.22745098
v -0.01085 0.13244 -0.50305 0.22745098 0.38039216 0.22745098
v 0.00149 0.12845 -0.49886 0.22745098 0.38039216 0.22745098
v -0.01085 0.13244 -0.50305 0.22745098 0.38039216 0.22745098
v -1e-05 0.11378 -0.5009 0.22745098 0.38039216 0.22745098
v 0.00149 0.12845 -0.49886 0.22745098 0.38039216 0.22745098
v -1e-05 0.11378 -0.5009 0.22745098 0.38039216 0.22745098
v -0.01085 0.13244 -0.50305 0.22745098 0.38039216 0.22745098
v -1e-05 0.11378 -0.5009 0.22745098 0.38039216 0.22745098
v -0.01684 0.12408 -0.50243 0.22745098 0.38039216 0.22745098
v -0.01085 0.13244 -0.50305 0.22745098 0.38039216 0.22745098
v -1e-05 0.11378 -0.5009 0.22745098 0.38039216 0.22745098
v -0.01085 0.13244 -0.50305 0.22745098 0.38039216 0.22745098
v -0.01684 0.12408 -0.50243 0.22745098 0.38039216 0.22745098
v -1e-05 0.11378 -0.5009 0.22745098 0.38039216 0.22745098
v -0.01396 0.11231 -0.50742 0.22745098 0.38039216 0.22745098
v -0.01684 0.12408 -0.50243 0.22745098 0.38039216 0.22745098
v -1e-05 0.11378 -0.5009 0.22745098 0.38039216 0.22745098
v -0.01684 0.12408 -0.50243 0.22745098 0.38039216 0.22745098
v -0.01396 0.11231 -0.50742 0.22745098 0.38039216 0.22745098
v -1e-05 0.11378 -0.5009 0.22745098 0.38039216 0.22745098
v -0.00437 0.10852 -0.50921 0.22745098 0.38039216 0.22745098
v -0.01396 0.11231 -0.50742 0.22745098 0.38039216 0.22745098
v -1e-05 0.11378 -0.5009 0.22745098 0.38039216 0.22745098
v -0.01396 0.11231 -0.50742 0.22745098 0.38039216 0.22745098
v -0.00437 0.10852 -0.50921 0.22745098 0.38039216 0.22745098
v -1e-05 0.11378 -0.5009 0.22745098 0.38039216 0.22745098
v 0.00033 0.10734 -0.50696 0.22745098 0.38039216 0.22745098
v -0.00437 0.10852 -0.50921 0.22745098 0.38039216 0.22745098
v -1e-05 0.11378 -0.5009 0.22745098 0.38039216 0.22745098
v -0.00437 0.10852 -0.50921 0.22745098 0.38039216 0.22745098
v 0.00033 0.10734 -0.50696 0.22745098 0.38039216 0.22745098
v -1e-05 0.11378 -0.5009 0.22745098 0.38039216 0.22745098
v 0.01028 0.11012 -0.50987 0.22745098 0.38039216 0.22745098
v 0.00429 0.10746 -0.50729 0.22745098 0.38039216 0.22745098
v -1e-05 0.11378 -0.5009 0.22745098 0.38039216 0.22745098
v 0.00429 0.10746 -0.50729 0.22745098 0.38039216 0.22745098
v 0.01028 0.11012 -0.50987 0.22745098 0.38039216 0.22745098
v -1e-05 0.11378 -0.5009 0.22745098 0.38039216 0.22745098
v 0.01524 0.11561 -0.50847 0.22745098 0.38039216 0.22745098
v 0.01028 0.11012 -0.50987 0.22745098 0.38039216 0.22745098
v -1e-05 0.11378 -0.5009 0.22745098 0.38039216 0.22745098
v 0.01028 0.11012 -0.50987 0.22745098 0.38039216 0.22745098
v 0.01524 0.11561 -0.50847 0.22745098 0.38039216 0.22745098
v -1e-05 0.11378 -0.5009 0.22745098 0.38039216 0.22745098
v 0.01846 0.12683 -0.50145 0.22745098 0.38039216 0.22745098
v 0.01524 0.11561 -0.50847 0.22745098 0.38039216 0.22745098
v -1e-05 0.11378 -0.5009 0.22745098 0.38039216 0.22745098
v 0.01524 0.11561 -0.50847 0.22745098 0.38039216 0.22745098
v 0.01846 0.12683 -0.50145 0.22745098 0.38039216 0.22745098
v -1e-05 0.11378 -0.5009 0.22745098 0.38039216 0.22745098
v 0.00785 0.13747 -0.50091 0.22745098 0.38039216 0.22745098
v 0.01846 0.12683 -0.50145 0.22745098 0.38039216 0.22745098
v -1e-05 0.11378 -0.5009 0.22745098 0.38039216 0.22745098
v 0.01846 0.12683 -0.50145 0.22745098 0.38039216 0.22745098
v 0.00785 0.13747 -0.50091 0.22745098 0.38039216 0.22745098
v -1e-05 0.11378 -0.5009 0.22745098 0.38039216 0.22745098
v 0.00149 0.12845 -0.49886 0.22745098 0.38039216 0.22745098
v 0.00785 0.13747 -0.50091 0.22745098 0.38039216 0.22745098
v -1e-05 0.11378 -0.5009 0.22745098 0.38039216 0.22745098
v 0.00785 0.13747 -0.50091 0.22745098 0.38039216 0.22745098
v 0.00149 0.12845 -0.49886 0.22745098 0.38039216 0.22745098
v 0.00149 0.12845 -0.49886 0.22745098 0.38039216 0.22745098
v 0.00136 0.13641 -0.50893 0.22745098 0.38039216 0.22745098
v 0.00785 0.13747 -0.50091 0.22745098 0.38039216 0.22745098
v 0.00149 0.12845 -0.49886 0.22745098 0.38039216 0.22745098
v 0.00785 0.13747 -0.50091 0.22745098 0.38039216 0.22745098
v 0.00136 0.13641 -0.50893 0.22745098 0.38039216 0.22745098
v 1.50155 0.12845 -0.49895 0.22745098 0.38039216 0.22745098
v 1.489 0.13244 -0.50243 0.22745098 0.38039216 0.22745098
v 1.50085 0.13641 -0.50899 0.22745098 0.38039216 0.22745098
v 1.50155 0.12845 -0.49895 0.22745098 0.38039216 0.22745098
v 1.50085 0.13641 -0.50899 0.22745098 0.38039216 0.22745098
v 1.489 0.13244 -0.50243 0.22745098 0.38039216 0.22745098
v 1.50155 0.12845 -0.49895 0.22745098 0.38039216 0.22745098
v 1.489 0.13244 -0.50243 0.22745098 0.38039216 0.22745098
v 1.49994 0.11378 -0.5009 0.22745098 0.38039216 0.22745098
v 1.50155 0.12845 -0.49895 0.22745098 0.38039216 0.22745098
v 1.49994 0.11378 -0.5009 0.22745098 0.38039216 0.22745098
v 1.489 0.13244 -0.50243 0.22745098 0.38039216 0.22745098
v 1.49994 0.11378 -0.5009 0.22745098 0.38039216 0.22745098
v 1.48305 0.12408 -0.50147 0.22745098 0.38039216 0.22745098
v 1.489 0.13244 -0.50243 0.22745098 0.38039216 0.22745098
v 1.49994 0.11378 -0.5009 0.22745098 0.38039216 0.22745098
v 1.489 0.13244 -0.50243 0.22745098 0.38039216 0.22745098
v 1.48305 0.12408 -0.50147 0.22745098 0.38039216 0.22745098
v 1.49994 0.11378 -0.5009 0.22745098 0.38039216 0.22745098
v 1.48564 0.11231 -0.50661 0.22745098 0.38039216 0.22745098
v 1.48305 0.12408 -0.50147 0.22745098 0.38039216 0.22745098
v 1.49994 0.11378 -0.5009 0.22745098 0.38039216 0.22745098
v 1.48305 0.12408 -0.50147 0.22745098 0.38039216 0.22745098
v 1.48564 0.11231 -0.50661 0.22745098 0.38039216 0.22745098
v 1.49994 0.11378 -0.5009 0.22745098 0.38039216 0.22745098
v 1.49512 0.10852 -0.50895 0.22745098 0.38039216 0.22745098
v 1.48564 0.11231 -0.50661 0.22745098 0.38039216 0.22745098
v 1.49994 0.11378 -0.5009 0.22745098 0.38039216 0.22745098
v 1.48564 0.11231 -0.50661 0.22745098 0.38039216 0.22745098
v 1.49512 0.10852 -0.50895 0.22745098 0.38039216 0.22745098
v 1.49994 0.11378 -0.5009 0.22745098 0.38039216 0.22745098
v 1.49993 0.10734 -0.50696 0.22745098 0.38039216 0.22745098
v 1.49512 0.10852 -0.50895 0.22745098 0.38039216 0.22745098
v 1.49994 0.11378 -0.5009 0.22745098 0.38039216 0.22745098
v 1.49512 0.10852 -0.50895 0.22745098 0.38039216 0.22745098
v 1.49993 0.10734 -0.50696 0.22745098 0.38039216 0.22745098
v 1.49994 0.11378 -0.5009 0.22745098 0.38039216 0.22745098
v 1.50971 0.11012 -0.51043 0.22745098 0.38039216 0.22745098
v 1.50387 0.10746 -0.50752 0.22745098 0.38039216 0.22745098
v 1.49994 0.11378 -0.5009 0.22745098 0.38039216 0.22745098
v 1.50387 0.10746 -0.50752 0.22745098 0.38039216 0.22745098
v 1.50971 0.11012 -0.51043 0.22745098 0.38039216 0.22745098
v 1.49994 0.11378 -0.5009 0.22745098 0.38039216 0.22745098
v 1.51473 0.11561 -0.50932 0.22745098 0.38039216 0.22745098
v 1.50971 0.11012 -0.51043 0.22745098 0.38039216 0.22745098
v 1.49994 0.11378 -0.5009 0.22745098 0.38039216 0.22745098
v 1.50971 0.11012 -0.51043 0.22745098 0.38039216 0.22745098
v 1.51473 0.11561 -0.50932 0.22745098 0.38039216 0.22745098
v 1.49994 0.11378 -0.5009 0.22745098 0.38039216 0.22745098
v 1.51835 0.12683 -0.50249 0.22745098 0.38039216 0.22745098
v 1.51473 0.11561 -0.50932 0.22745098 0.38039216 0.22745098
v 1.49994 0.11378 -0.5009 0.22745098 0.38039216 0.22745098
v 1.51473 0.11561 -0.50932 0.22745098 0.38039216 0.22745098
v 1.51835 0.12683 -0.50249 0.22745098 0.38039216 0.22745098
v 1.49994 0.11378 -0.5009 0.22745098 0.38039216 0.22745098
v 1.50779 0.13747 -0.50135 0.22745098 0.38039216 0.22745098
v 1.51835 0.12683 -0.50249 0.22745098 0.38039216 0.22745098
v 1.49994 0.11378 -0.5009 0.22745098 0.38039216 0.22745098
v 1.51835 0.12683 -0.50249 0.22745098 0.38039216 0.22745098
v 1.50779 0.13747 -0.50135 0.22745098 0.38039216 0.22745098
v 1.49994 0.11378 -0.5009 0.22745098 0.38039216 0.22745098
v 1.50155 0.12845 -0.49895 0.22745098 0.38039216 0.22745098
v 1.50779 0.13747 -0.50135 0.22745098 0.38039216 0.22745098
v 1.49994 0.11378 -0.5009 0.22745098 0.38039216 0.22745098
v 1.50779 0.13747 -0.50135 0.22745098 0.38039216 0.22745098
v 1.50155 0.12845 -0.49895 0.22745098 0.38039216 0.22745098
v 1.50155 0.12845 -0.49895 0.22745098 0.38039216 0.22745098
v 1.50085 0.13641 -0.50899 0.22745098 0.38039216 0.22745098
v 1.50779 0.13747 -0.50135 0.22745098 0.38039216 0.22745098
v 1.50155 0.12845 -0.49895 0.22745098 0.38039216 0.22745098
v 1.50779 0.13747 -0.50135 0.22745098 0.38039216 0.22745098
v 1.50085 0.13641 -0.50899 0.22745098 0.38039216 0.22745098
v -1.49874 0.12845 -0.99861 0.22745098 0.38039216 0.22745098
v -1.51011 0.13244 -1.00498 0.22745098 0.38039216 0.22745098
v -1.49703 0.13641 -1.00853 0.22745098 0.38039216 0.22745098
v -1.49874 0.12845 -0.99861 0.22745098 0.38039216 0.22745098
v -1.49703 0.13641 -1.00853 0.22745098 0.38039216 0.22745098
v -1.51011 0.13244 -1.00498 0.22745098 0.38039216 0.22745098
v -1.49874 0.12845 -0.99861 0.22745098 0.38039216 0.22745098
v -1.51011 0.13244 -1.00498 0.22745098 0.38039216 0.22745098
v -1.49984 0.11378 -1.00089 0.22745098 0.38039216 0.22745098
v -1.49874 0.12845 -0.99861 0.22745098 0.38039216 0.22745098
v -1.49984 0.11378 -1.00089 0.22745098 0.38039216 0.22745098
v -1.51011 0.13244 -1.00498 0.22745098 0.38039216 0.22745098
v -1.49984 0.11378 -1.00089 0.22745098 0.38039216 0.22745098
v -1.51611 0.12408 -1.00547 0.22745098 0.38039216 0.22745098
v -1.51011 0.13244 -1.00498 0.22745098 0.38039216 0.22745098
v -1.49984 0.11378 -1.00089 0.22745098 0.38039216 0.22745098
v -1.51011 0.13244 -1.00498 0.22745098 0.38039216 0.22745098
v -1.51611 0.12408 -1.00547 0.22745098 0.38039216 0.22745098
v -1.49984 0.11378 -1.00089 0.22745098 0.38039216 0.22745098
v -1.51237 0.11231 -1.00985 0.22745098 0.38039216 0.22745098
v -1.51611 0.12408 -1.00547 0.22745098 0.38039216 0.22745098
v -1.49984 0.11378 -1.00089 0.22745098 0.38039216 0.22745098
v -1.51611 0.12408 -1.00547 0.22745098 0.38039216 0.22745098
v -1.51237 0.11231 -1.00985 0.22745098 0.38039216 0.22745098
v -1.49984 0.11378 -1.00089 0.22745098 0.38039216 0.22745098
v -1.50261 0.10852 -1.00985 0.22745098 0.38039216 0.22745098
v -1.51237 0.11231 -1.00985 0.22745098 0.38039216 0.22745098
v -1.49984 0.11378 -1.00089 0.22745098 0.38039216 0.22745098
v -1.51237 0.11231 -1.00985 0.22745098 0.38039216 0.22745098
v -1.50261 0.10852 -1.00985 0.22745098 0.38039216 0.22745098
v -1.49984 0.11378 -1.00089 0.22745098 0.38039216 0.22745098
v -1.49841 0.10734 -1.00678 0.22745098 0.38039216 0.22745098
v -1.50261 0.10852 -1.00985 0.22745098 0.38039216 0.22745098
v -1.49984 0.11378 -1.00089 0.22745098 0.38039216 0.22745098
v -1.50261 0.10852 -1.00985 0.22745098 0.38039216 0.22745098
v -1.49841 0.10734 -1.00678 0.22745098 0.38039216 0.22745098
v -1.49984 0.11378 -1.00089 0.22745098 0.38039216 0.22745098
v -1.48808 0.11012 -1.00782 0.22745098 0.38039216 0.22745098
v -1.49445 0.10746 -1.00638 0.22745098 0.38039216 0.22745098
v -1.49984 0.11378 -1.00089 0.22745098 0.38039216 0.22745098
v -1.49445 0.10746 -1.00638 0.22745098 0.38039216 0.22745098
v -1.48808 0.11012 -1.00782 0.22745098 0.38039216 0.22745098
v -1.49984 0.11378 -1.00089 0.22745098 0.38039216 0.22745098
v -1.48347 0.11561 -1.00554 0.22745098 0.38039216 0.22745098
v -1.48808 0.11012 -1.00782 0.22745098 0.38039216 0.22745098
v -1.49984 0.11378 -1.00089 0.22745098 0.38039216 0.22745098
v -1.48808 0.11012 -1.00782 0.22745098 0.38039216 0.22745098
v -1.48347 0.11561 -1.00554 0.22745098 0.38039216 0.22745098
v -1.49984 0.11378 -1.00089 0.22745098 0.38039216 0.22745098
v -1.48159 0.12683 -0.99805 0.22745098 0.38039216 0.22745098
v -1.48347 0.11561 -1.00554 0.22745098 0.38039216 0.22745098
v -1.49984 0.11378 -1.00089 0.22745098 0.38039216 0.22745098
v -1.48347 0.11561 -1.00554 0.22745098 0.38039216 0.22745098
v -1.48159 0.12683 -0.99805 0.22745098 0.38039216 0.22745098
v -1.49984 0.11378 -1.00089 0.22745098 0.38039216 0.22745098
v -1.49211 0.13747 -0.99946 0.22745098 0.38039216 0.22745098
v -1.48159 0.12683 -0.99805 0.22745098 0.38039216 0.22745098
v -1.49984 0.11378 -1.00089 0.22745098 0.38039216 0.22745098
v -1.48159 0.12683 -0.99805 0.22745098 0.38039216 0.22745098
v -1.49211 0.13747 -0.99946 0.22745098 0.38039216 0.22745098
v -1.49984 0.11378 -1.00089 0.22745098 0.38039216 0.22745098
v -1.49874 0.12845 -0.99861 0.22745098 0.38039216 0.22745098
v -1.49211 0.13747 -0.99946 0.22745098 0.38039216 0.22745098
v -1.49984 0.11378 -1.00089 0.22745098 0.38039216 0.22745098
v -1.49211 0.13747 -0.99946 0.22745098 0.38039216 0.22745098
v -1.49874 0.12845 -0.99861 0.22745098 0.38039216 0.22745098
v -1.49874 0.12845 -0.99861 0.22745098 0.38039216 0.22745098
v -1.49703 0.13641 -1.00853 0.22745098 0.38039216 0.22745098
v -1.49211 0.13747 -0.99946 0.22745098 0.38039216 0.22745098
v -1.49874 0.12845 -0.99861 0.22745098 0.38039216 0.22745098
v -1.49211 0.13747 -0.99946 0.22745098 0.38039216 0.22745098
v -1.49703 0.13641 -1.00853 0.22745098 0.38039216 0.22745098
v 0.0017 0.12845 -0.9992 0.22745098 0.38039216 0.22745098
v -0.01124 0.13244 -1.00073 0.22745098 0.38039216 0.22745098
v -0.00052 0.13641 -1.00902 0.22745098 0.38039216 0.22745098
v 0.0017 0.12845 -0.9992 0.22745098 0.38039216 0.22745098
v -0.00052 0.13641 -1.00902 0.22745098 0.38039216 0.22745098
v -0.01124 0.13244 -1.00073 0.22745098 0.38039216 0.22745098
v 0.0017 0.12845 -0.9992 0.22745098 0.38039216 0.22745098
v -0.01124 0.13244 -1.00073 0.22745098 0.38039216 0.22745098
v -0.00019 0.11378 -1.00088 0.22745098 0.38039216 0.22745098
v 0.0017 0.12845 -0.9992 0.22745098 0.38039216 0.22745098
v -0.00019 0.11378 -1.00088 0.22745098 0.38039216 0.22745098
v -0.01124 0.13244 -1.00073 0.22745098 0.38039216 0.22745098
v -0.00019 0.11378 -1.00088 0.22745098 0.38039216 0.22745098
v -0.01698 0.12408 -0.99888 0.22745098 0.38039216 0.22745098
v -0.01124 0.13244 -1.00073 0.22745098 0.38039216 0.22745098
v -0.00019 0.11378 -1.00088 0.22745098 0.38039216 0.22745098
v -0.01124 0.13244 -1.00073 0.22745098 0.38039216 0.22745098
v -0.01698 0.12408 -0.99888 0.22745098 0.38039216 0.22745098
v -0.00019 0.11378 -1.00088 0.22745098 0.38039216 0.22745098
v -0.0152 0.11231 -1.00436 0.22745098 0.38039216 0.22745098
v -0.01698 0.12408 -0.99888 0.22745098 0.38039216 0.22745098
v -0.00019 0.11378 -1.00088 0.22745098 0.38039216 0.22745098
v -0.01698 0.12408 -0.99888 0.22745098 0.38039216 0.22745098
v -0.0152 0.11231 -1.00436 0.22745098 0.38039216 0.22745098
v -0.00019 0.11378 -1.00088 0.22745098 0.38039216 0.22745098
v -0.00618 0.10852 -1.0081 0.22745098 0.38039216 0.22745098
v -0.0152 0.11231 -1.00436 0.22745098 0.38039216 0.22745098
v -0.00019 0.11378 -1.00088 0.22745098 0.38039216 0.22745098
v -0.0152 0.11231 -1.00436 0.22745098 0.38039216 0.22745098
v -0.00618 0.10852 -1.0081 0.22745098 0.38039216 0.22745098
v -0.00019 0.11378 -1.00088 0.22745098 0.38039216 0.22745098
v -0.00112 0.10734 -1.00687 0.22745098 0.38039216 0.22745098
v -0.00618 0.10852 -1.0081 0.22745098 0.38039216 0.22745098
v -0.00019 0.11378 -1.00088 0.22745098 0.38039216 0.22745098
v -0.00618 0.10852 -1.0081 0.22745098 0.38039216 0.22745098
v -0.00112 0.10734 -1.00687 0.22745098 0.38039216 0.22745098
v -0.00019 0.11378 -1.00088 0.22745098 0.38039216 0.22745098
v 0.00801 0.11012 -1.01179 0.22745098 0.38039216 0.22745098
v 0.00269 0.10746 -1.00802 0.22745098 0.38039216 0.22745098
v -0.00019 0.11378 -1.00088 0.22745098 0.38039216 0.22745098
v 0.00269 0.10746 -1.00802 0.22745098 0.38039216 0.22745098
v 0.00801 0.11012 -1.01179 0.22745098 0.38039216 0.22745098
v -0.00019 0.11378 -1.00088 0.22745098 0.38039216 0.22745098
v 0.01315 0.11561 -1.01145 0.22745098 0.38039216 0.22745098
v 0.00801 0.11012 -1.01179 0.22745098 0.38039216 0.22745098
v -0.00019 0.11378 -1.00088 0.22745098 0.38039216 0.22745098
v 0.00801 0.11012 -1.01179 0.22745098 0.38039216 0.22745098
v 0.01315 0.11561 -1.01145 0.22745098 0.38039216 0.22745098
v -0.00019 0.11378 -1.00088 0.22745098 0.38039216 0.22745098
v 0.01776 0.12683 -1.00525 0.22745098 0.38039216 0.22745098
v 0.01315 0.11561 -1.01145 0.22745098 0.38039216 0.22745098
v -0.00019 0.11378 -1.00088 0.22745098 0.38039216 0.22745098
v 0.01315 0.11561 -1.01145 0.22745098 0.38039216 0.22745098
v 0.01776 0.12683 -1.00525 0.22745098 0.38039216 0.22745098
v -0.00019 0.11378 -1.00088 0.22745098 0.38039216 0.22745098
v 0.00749 0.13747 -1.00252 0.22745098 0.38039216 0.22745098
v 0.01776 0.12683 -1.00525 0.22745098 0.38039216 0.22745098
v -0.00019 0.11378 -1.00088 0.22745098 0.38039216 0.22745098
v 0.01776 0.12683 -1.00525 0.22745098 0.38039216 0.22745098
v 0.00749 0.13747 -1.00252 0.22745098 0.38039216 0.22745098
v -0.00019 0.11378 -1.00088 0.22745098 0.38039216 0.22745098
v 0.0017 0.12845 -0.9992 0.22745098 0.38039216 0.22745098
v 0.00749 0.13747 -1.00252 0.22745098 0.38039216 0.22745098
v -0.00019 0.11378 -1.00088 0.22745098 0.38039216 0.22745098
v 0.00749 0.13747 -1.00252 0.22745098 0.38039216 0.22745098
v 0.0017 0.12845 -0.9992 0.22745098 0.38039216 0.22745098
v 0.0017 0.12845 -0.9992 0.22745098 0.38039216 0.22745098
v -0.00052 0.13641 -1.00902 0.22745098 0.38039216 0.22745098
v 0.00749 0.13747 -1.00252 0.22745098 0.38039216 0.22745098
v 0.0017 0.12845 -0.9992 0.22745098 0.38039216 0.22745098
v 0.00749 0.13747 -1.00252 0.22745098 0.38039216 0.22745098
v -0.00052 0.13641 -1.00902 0.22745098 0.38039216 0.22745098
v 1.50137 0.12845 -0.99872 0.22745098 0.38039216 0.22745098
v 1.48951 0.13244 -1.00411 0.22745098 0.38039216 0.22745098
v 1.50224 0.13641 -1.00875 0.22745098 0.38039216 0.22745098
v 1.50137 0.12845 -0.99872 0.22745098 0.38039216 0.22745098
v 1.50224 0.13641 -1.00875 0.22745098 0.38039216 0.22745098
v 1.48951 0.13244 -1.00411 0.22745098 0.38039216 0.22745098
v 1.50137 0.12845 -0.99872 0.22745098 0.38039216 0.22745098
v 1.48951 0.13244 -1.00411 0.22745098 0.38039216 0.22745098
v 1.50008 0.11378 -1.0009 0.22745098 0.38039216 0.22745098
v 1.50137 0.12845 -0.99872 0.22745098 0.38039216 0.22745098
v 1.50008 0.11378 -1.0009 0.22745098 0.38039216 0.22745098
v 1.48951 0.13244 -1.00411 0.22745098 0.38039216 0.22745098
v 1.50008 0.11378 -1.0009 0.22745098 0.38039216 0.22745098
v 1.48348 0.12408 -1.00409 0.22745098 0.38039216 0.22745098
v 1.48951 0.13244 -1.00411 0.22745098 0.38039216 0.22745098
v 1.50008 0.11378 -1.0009 0.22745098 0.38039216 0.22745098
v 1.48951 0.13244 -1.00411 0.22745098 0.38039216 0.22745098
v 1.48348 0.12408 -1.00409 0.22745098 0.38039216 0.22745098
v 1.50008 0.11378 -1.0009 0.22745098 0.38039216 0.22745098
v 1.48684 0.11231 -1.00876 0.22745098 0.38039216 0.22745098
v 1.48348 0.12408 -1.00409 0.22745098 0.38039216 0.22745098
v 1.50008 0.11378 -1.0009 0.22745098 0.38039216 0.22745098
v 1.48348 0.12408 -1.00409 0.22745098 0.38039216 0.22745098
v 1.48684 0.11231 -1.00876 0.22745098 0.38039216 0.22745098
v 1.50008 0.11378 -1.0009 0.22745098 0.38039216 0.22745098
v 1.49657 0.10852 -1.0096 0.22745098 0.38039216 0.22745098
v 1.48684 0.11231 -1.00876 0.22745098 0.38039216 0.22745098
v 1.50008 0.11378 -1.0009 0.22745098 0.38039216 0.22745098
v 1.48684 0.11231 -1.00876 0.22745098 0.38039216 0.22745098
v 1.49657 0.10852 -1.0096 0.22745098 0.38039216 0.22745098
v 1.50008 0.11378 -1.0009 0.22745098 0.38039216 0.22745098
v 1.50102 0.10734 -1.00689 0.22745098 0.38039216 0.22745098
v 1.49657 0.10852 -1.0096 0.22745098 0.38039216 0.22745098
v 1.50008 0.11378 -1.0009 0.22745098 0.38039216 0.22745098
v 1.49657 0.10852 -1.0096 0.22745098 0.38039216 0.22745098
v 1.50102 0.10734 -1.00689 0.22745098 0.38039216 0.22745098
v 1.50008 0.11378 -1.0009 0.22745098 0.38039216 0.22745098
v 1.51121 0.11012 -1.0088 0.22745098 0.38039216 0.22745098
v 1.50499 0.10746 -1.00683 0.22745098 0.38039216 0.22745098
v 1.50008 0.11378 -1.0009 0.22745098 0.38039216 0.22745098
v 1.50499 0.10746 -1.00683 0.22745098 0.38039216 0.22745098
v 1.51121 0.11012 -1.0088 0.22745098 0.38039216 0.22745098
v 1.50008 0.11378 -1.0009 0.22745098 0.38039216 0.22745098
v 1.516 0.11561 -1.00692 0.22745098 0.38039216 0.22745098
v 1.51121 0.11012 -1.0088 0.22745098 0.38039216 0.22745098
v 1.50008 0.11378 -1.0009 0.22745098 0.38039216 0.22745098
v 1.51121 0.11012 -1.0088 0.22745098 0.38039216 0.22745098
v 1.516 0.11561 -1.00692 0.22745098 0.38039216 0.22745098
v 1.50008 0.11378 -1.0009 0.22745098 0.38039216 0.22745098
v 1.51851 0.12683 -0.99961 0.22745098 0.38039216 0.22745098
v 1.516 0.11561 -1.00692 0.22745098 0.38039216 0.22745098
v 1.50008 0.11378 -1.0009 0.22745098 0.38039216 0.22745098
v 1.516 0.11561 -1.00692 0.22745098 0.38039216 0.22745098
v 1.51851 0.12683 -0.99961 0.22745098 0.38039216 0.22745098
v 1.50008 0.11378 -1.0009 0.22745098 0.38039216 0.22745098
v 1.5079 0.13747 -1.00013 0.22745098 0.38039216 0.22745098
v 1.51851 0.12683 -0.99961 0.22745098 0.38039216 0.22745098
v 1.50008 0.11378 -1.0009 0.22745098 0.38039216 0.22745098
v 1.51851 0.12683 -0.99961 0.22745098 0.38039216 0.22745098
v 1.5079 0.13747 -1.00013 0.22745098 0.38039216 0.22745098
v 1.50008 0.11378 -1.0009 0.22745098 0.38039216 0.22745098
v 1.50137 0.12845 -0.99872 0.22745098 0.38039216 0.22745098
v 1.5079 0.13747 -1.00013 0.22745098 0.38039216 0.22745098
v 1.50008 0.11378 -1.0009 0.22745098 0.38039216 0.22745098
v 1.5079 0.13747 -1.00013 0.22745098 0.38039216 0.22745098
v 1.50137 0.12845 -0.99872 0.22745098 0.38039216 0.22745098
v 1.50137 0.12845 -0.99872 0.22745098 0.38039216 0.22745098
v 1.50224 0.13641 -1.00875 0.22745098 0.38039216 0.22745098
v 1.5079 0.13747 -1.00013 0.22745098 0.38039216 0.22745098
v 1.50137 0.12845 -0.99872 0.22745098 0.38039216 0.22745098
v 1.5079 0.13747 -1.00013 0.22745098 0.38039216 0.22745098
v 1.50224 0.13641 -1.00875 0.22745098 0.38039216 0.22745098
f 1 3 2
f 4 6 5
f 7 9 8
f 10 12 11
f 13 15 14
f 16 18 17
f 19 21 20
f 22 24 23
f 25 27 26
f 28 30 29
f 31 33 32
f 34 36 35
f 37 39 38
f 40 42 41
f 43 45 44
f 46 48 47
f 49 51 50
f 52 54 53
f 55 57 56
f 58 60 59
f 61 63 62
f 64 66 65
f 67 69 68
f 70 72 71
f 73 75 74
f 76 78 77
f 79 81 80
f 82 84 83
f 85 87 86
f 88 90 89
f 91 93 92
f 94 96 95
f 97 99 98
f 100 102 101
f 103 105 104
f 106 108 107
f 109 111 110
f 112 114 113
f 115 117 116
f 118 120 119
f 121 123 122
f 124 126 125
f 127 129 128
f 130 132 131
f 133 135 134
f 136 138 137
f 139 141 140
f 142 144 143
f 145 147 146
f 148 150 149
f 151 153 152
f 154 156 155
f 157 159 158
f 160 162 161
f 163 165 164
f 166 168 167
f 169 171 170
f 172 174 173
f 175 177 176
f 178 180 179
f 181 183 182
f 184 186 185
f 187 189 188
f 190 192 191
f 193 195 194
f 196 198 197
f 199 201 200
f 202 204 203
f 205 207 206
f 208 210 209
f 211 213 212
f 214 216 215
f 217 219 218
f 220 222 221
f 223 225 224
f 226 228 227
f 229 231 230
f 232 234 233
f 235 237 236
f 238 240 239
f 241 243 242
f 244 246 245
f 247 249 248
f 250 252 251
f 253 255 254
f 256 258 257
f 259 261 260
f 262 264 263
f 265 267 266
f 268 270 269
f 271 273 272
f 274 276 275
f 277 279 278
f 280 282 281
f 283 285 284
f 286 288 287
f 289 291 290
f 292 294 293
f 295 297 296
f 298 300 299
f 301 303 302
f 304 306 305
f 307 309 308
f 310 312 311
f 313 315 314
f 316 318 317
f 319 321 320
f 322 324 323
f 325 327 326
f 328 330 329
f 331 333 332
f 334 336 335
f 337 339 338
f 340 342 341
f 343 345 344
f 346 348 347
f 349 351 350
f 352 354 353
f 355 357 356
f 358 360 359
f 361 363 362
f 364 366 365
f 367 369 368
f 370 372 371
f 373 375 374
f 376 378 377
f 379 381 380
f 382 384 383
f 385 387 386
f 388 390 389
f 391 393 392
f 394 396 395
f 397 399 398
f 400 402 401
f 403 405 404
f 406 408 407
f 409 411 410
f 412 414 413
f 415 417 416
f 418 420 419
f 421 423 422
f 424 426 425
f 427 429 428
f 430 432 431
f 433 435 434
f 436 438 437
f 439 441 440
f 442 444 443
f 445 447 446
f 448 450 449
f 451 453 452
f 454 456 455
f 457 459 458
f 460 462 461
f 463 465 464
f 466 468 467
f 469 471 470
f 472 474 473
f 475 477 476
f 478 480 479
f 481 483 482
f 484 486 485
f 487 489 488
f 490 492 491
f 493 495 494
f 496 498 497
f 499 501 500
f 502 504 503
f 505 507 506
f 508 510 509
f 511 513 512
f 514 516 515
f 517 519 518
f 520 522 521
f 523 525 524
f 526 528 527
f 529 531 530
f 532 534 533
f 535 537 536
f 538 540 539
f 541 543 542
f 544 546 545
f 547 549 548
f 550 552 551
f 553 555 554
f 556 558 557
f 559 561 560
f 562 564 563
f 565 567 566
f 568 570 569
f 571 573 572
f 574 576 575
f 577 579 578
f 580 582 581
f 583 585 584
f 586 588 587
f 589 591 590
f 592 594 593
f 595 597 596
f 598 600 599
f 601 603 602
f 604 606 605
f 607 609 608
f 610 612 611
f 613 615 614
f 616 618 617
f 619 621 620
f 622 624 623
f 625 627 626
f 628 630 629
f 631 633 632
f 634 636 635
f 637 639 638
f 640 642 641
f 643 645 644
f 646 648 647
f 649 651 650
f 652 654 653
f 655 657 656
f 658 660 659
f 661 663 662
f 664 666 665
f 667 669 668
f 670 672 671
f 673 675 674
f 676 678 677
f 679 681 680
f 682 684 683
f 685 687 686
f 688 690 689
f 691 693 692
f 694 696 695
f 697 699 698
f 700 702 701
f 703 705 704
f 706 708 707
f 709 711 710
f 712 714 713
f 715 717 716
f 718 720 719
f 721 723 722
f 724 726 725
f 727 729 728
f 730 732 731
f 733 735 734
f 736 738 737
f 739 741 740
f 742 744 743
f 745 747 746
f 748 750 749
f 751 753 752
f 754 756 755
f 757 759 758
f 760 762 761
f 763 765 764
f 766 768 767
f 769 771 770
f 772 774 773
f 775 777 776
f 778 780 779
f 781 783 782
f 784 786 785
f 787 789 788
f 790 792 791
f 793 795 794
f 796 798 797
f 799 801 800
f 802 804 803
f 805 807 806
f 808 810 809
f 811 813 812
f 814 816 815
f 817 819 818
f 820 822 821
f 823 825 824
f 826 828 827
f 829 831 830
f 832 834 833
f 835 837 836
f 838 840 839
f 841 843 842
f 844 846 845
f 847 849 848
f 850 852 851
f 853 855 854
f 856 858 857
f 859 861 860
f 862 864 863
f 865 867 866
f 868 870 869
f 871 873 872
f 874 876 875
f 877 879 878
f 880 882 881
f 883 885 884
f 886 888 887
f 889 891 890
f 892 894 893
f 895 897 896
f 898 900 899
f 901 903 902
f 904 906 905
f 907 909 908
f 910 912 911
f 913 915 914
f 916 918 917
f 919 921 920
f 922 924 923
f 925 927 926
f 928 930 929
f 931 933 932
f 934 936 935
f 937 939 938
f 940 942 941
f 943 945 944
f 946 948 947
f 949 951 950
f 952 954 953
f 955 957 956
f 958 960 959
f 961 963 962
f 964 966 965
f 967 969 968
f 970 972 971
f 973 975 974
f 976 978 977
f 979 981 980
f 982 984 983
f 985 987 986
f 988 990 989
f 991 993 992
f 994 996 995
f 997 999 998
f 1000 1002 1001
f 1003 1005 1004
f 1006 1008 1007
f 1009 1011 1010
f 1012 1014 1013
f 1015 1017 1016
f 1018 1020 1019
f 1021 1023 1022
f 1024 1026 1025
f 1027 1029 1028
f 1030 1032 1031
f 1033 1035 1034
f 1036 1038 1037
f 1039 1041 1040
f 1042 1044 1043
f 1045 1047 1046
f 1048 1050 1049
f 1051 1053 1052
f 1054 1056 1055
f 1057 1059 1058
f 1060 1062 1061
f 1063 1065 1064
f 1066 1068 1067
f 1069 1071 1070
f 1072 1074 1073
f 1075 1077 1076
f 1078 1080 1079
